<svg xmlns="http://www.w3.org/2000/svg" width="1440" height="1130.738" viewBox="0 0 1440 1130.738">
    <defs>
        <style>
            .cls-1{opacity:.05}.cls-2{opacity:.7}.cls-3{fill:url(#linear-gradient)}
        </style>
        <linearGradient id="linear-gradient" x1=".5" x2=".5" y2="1" gradientUnits="objectBoundingBox">
            <stop offset="0" stop-color="#593ea7"/>
            <stop offset="1" stop-color="#b095ff"/>
        </linearGradient>
    </defs>
    <g id="Group_8211" class="cls-1" data-name="Group 8211" transform="translate(-834.033 -332)">
        <g id="Group_12" class="cls-2" data-name="Group 12" transform="translate(1039.645 332)">
            <path id="Path_72" d="M0 0l205.611 78.376v250.8L0 250.8z" class="cls-3" data-name="Path 72" transform="translate(205.508)"/>
            <path id="Path_73" d="M205.611 0L0 78.376v250.8L205.611 250.8z" class="cls-3" data-name="Path 73"/>
            <path id="Path_74" d="M205.611 0L0 78.376l204.02 76.132L410.3 78.376z" class="cls-3" data-name="Path 74" transform="translate(0 250.804)"/>
        </g>
        <g id="Group_16" class="cls-2" data-name="Group 16" transform="translate(1554.25 694.713)">
            <path id="Path_72-2" d="M0 0l205.611 78.376v250.8L0 250.8z" class="cls-3" data-name="Path 72" transform="translate(205.508)"/>
            <path id="Path_73-2" d="M205.611 0L0 78.376v250.8L205.611 250.8z" class="cls-3" data-name="Path 73"/>
            <path id="Path_74-2" d="M205.611 0L0 78.376l204.02 76.132L410.3 78.376z" class="cls-3" data-name="Path 74" transform="translate(0 250.804)"/>
        </g>
        <g id="Group_14" class="cls-2" data-name="Group 14" transform="translate(834.033 572.792)">
            <path id="Path_72-3" d="M0 0l205.611 78.376v250.8L0 250.8z" class="cls-3" data-name="Path 72" transform="translate(205.508)"/>
            <path id="Path_73-3" d="M205.611 0L0 78.376v250.8L205.611 250.8z" class="cls-3" data-name="Path 73"/>
            <path id="Path_74-3" d="M205.611 0L0 78.376l204.02 76.132L410.3 78.376z" class="cls-3" data-name="Path 74" transform="translate(0 250.804)"/>
        </g>
        <g id="Group_17" class="cls-2" data-name="Group 17" transform="translate(1348.473 935.614)">
            <path id="Path_72-4" d="M0 0l205.611 78.376v250.8L0 250.8z" class="cls-3" data-name="Path 72" transform="translate(205.508)"/>
            <path id="Path_73-4" d="M205.611 0L0 78.376v250.8L205.611 250.8z" class="cls-3" data-name="Path 73"/>
            <path id="Path_74-4" d="M205.611 0L0 78.376l204.02 76.132L410.3 78.376z" class="cls-3" data-name="Path 74" transform="translate(0 250.804)"/>
        </g>
        <g id="Group_11" class="cls-2" data-name="Group 11" transform="translate(1348.473 453.812)">
            <path id="Path_75" d="M0 0l205.611 78.376v250.8L0 250.8z" class="cls-3" data-name="Path 75" transform="translate(205.508)"/>
            <path id="Path_77" d="M205.611 0L0 78.376v250.8L205.611 250.8z" class="cls-3" data-name="Path 77"/>
            <path id="Path_76" d="M205.611 0L0 78.376l204.02 76.132L410.3 78.376z" class="cls-3" data-name="Path 76" transform="translate(0 250.804)"/>
        </g>
        <g id="Group_18" class="cls-2" data-name="Group 18" transform="translate(1862.914 816.633)">
            <path id="Path_75-2" d="M0 0l205.611 78.376v250.8L0 250.8z" class="cls-3" data-name="Path 75" transform="translate(205.508)"/>
            <path id="Path_77-2" d="M205.611 0L0 78.376v250.8L205.611 250.8z" class="cls-3" data-name="Path 77"/>
            <path id="Path_76-2" d="M205.611 0L0 78.376l204.02 76.132L410.3 78.376z" class="cls-3" data-name="Path 76" transform="translate(0 250.804)"/>
        </g>
        <g id="Group_13" class="cls-2" data-name="Group 13" transform="translate(1142.697 694.713)">
            <path id="Path_75-3" d="M0 0l205.611 78.376v250.8L0 250.8z" class="cls-3" data-name="Path 75" transform="translate(205.508)"/>
            <path id="Path_77-3" d="M205.611 0L0 78.376v250.8L205.611 250.8z" class="cls-3" data-name="Path 77"/>
            <path id="Path_76-3" d="M205.611 0L0 78.376l204.02 76.132L410.3 78.376z" class="cls-3" data-name="Path 76" transform="translate(0 250.804)"/>
        </g>
        <g id="Group_15" class="cls-2" data-name="Group 15" transform="translate(1657.302 1057.425)">
            <path id="Path_75-4" d="M0 0l205.611 78.376v250.8L0 250.8z" class="cls-3" data-name="Path 75" transform="translate(205.508)"/>
            <path id="Path_77-4" d="M205.611 0L0 78.376v250.8L205.611 250.8z" class="cls-3" data-name="Path 77"/>
            <path id="Path_76-4" d="M205.611 0L0 78.376l204.02 76.132L410.3 78.376z" class="cls-3" data-name="Path 76" transform="translate(0 250.804)"/>
        </g>
    </g>
</svg>
